<?xml version="1.0" standalone="no"?>
<!DOCTYPE svg PUBLIC "-//W3C//DTD SVG 20010904//EN"
 "http://www.w3.org/TR/2001/REC-SVG-20010904/DTD/svg10.dtd">
<svg version="1.0" xmlns="http://www.w3.org/2000/svg"
 width="310.000000pt" height="310.000000pt" viewBox="0 0 310.000000 310.000000"
 preserveAspectRatio="xMidYMid meet">
<metadata>
Created by potrace 1.11, written by Peter Selinger 2001-2013
</metadata>
<g transform="translate(0.000000,310.000000) scale(0.100000,-0.100000)"
fill="#000000" stroke="none">
<path d="M1315 3086 c-650 -107 -1143 -575 -1287 -1223 -19 -84 -22 -129 -22
-313 0 -184 3 -229 22 -313 138 -619 590 -1071 1209 -1209 84 -19 129 -22 313
-22 184 0 229 3 313 22 619 138 1071 590 1209 1209 19 84 22 129 22 313 0 184
-3 229 -22 313 -138 617 -591 1072 -1204 1208 -120 27 -432 35 -553 15z m-146
-474 c43 -32 49 -81 50 -397 1 -417 18 -522 91 -589 56 -51 98 -55 168 -20 92
47 190 187 242 344 48 146 100 457 100 597 l0 51 53 18 c64 21 135 24 170 5
48 -25 61 -72 53 -189 -12 -207 -91 -798 -142 -1067 -14 -77 -27 -156 -28
-175 l-1 -35 65 -7 c244 -27 594 -150 649 -227 49 -68 29 -154 -50 -226 l-40
-36 -37 33 c-118 107 -343 222 -524 268 -115 30 -113 31 -138 -48 -35 -107
-115 -261 -172 -331 -126 -154 -327 -231 -526 -203 -223 32 -348 146 -346 317
1 124 60 219 192 305 135 89 348 154 545 167 90 6 99 8 107 29 14 36 62 332
58 360 -3 25 -4 24 -38 -20 -41 -55 -113 -113 -190 -153 -50 -25 -65 -28 -155
-28 -88 1 -106 4 -151 27 -103 54 -171 164 -199 323 -11 61 -19 201 -25 430
-5 187 -14 364 -20 394 -13 71 -14 67 18 80 81 34 178 35 221 3z"/>
<path d="M1470 986 c-134 -30 -256 -84 -321 -143 -104 -94 -107 -222 -7 -296
42 -31 126 -35 182 -7 92 44 190 186 250 362 14 42 26 81 26 87 0 14 -59 12
-130 -3z"/>
</g>
</svg>
